<svg width="64" height="64" viewBox="0 0 64 64" fill="none" xmlns="http://www.w3.org/2000/svg">
<rect x="1" y="1" width="62" height="62" stroke="#2A2A2A" stroke-width="2"/>
<path d="M53.7071 32.7071C54.0976 32.3166 54.0976 31.6834 53.7071 31.2929L47.3431 24.9289C46.9526 24.5384 46.3195 24.5384 45.9289 24.9289C45.5384 25.3195 45.5384 25.9526 45.9289 26.3431L51.5858 32L45.9289 37.6569C45.5384 38.0474 45.5384 38.6805 45.9289 39.0711C46.3195 39.4616 46.9526 39.4616 47.3431 39.0711L53.7071 32.7071ZM11 33H53V31H11V33ZM50.7071 28.2929L41.2071 18.7929L39.7929 20.2071L49.2929 29.7071L50.7071 28.2929ZM49.2929 34.2929L39.7929 43.7929L41.2071 45.2071L50.7071 35.7071L49.2929 34.2929Z" fill="black"/>
</svg>
