<svg width="64" height="64" viewBox="0 0 64 64" fill="none" xmlns="http://www.w3.org/2000/svg">
<rect x="-1" y="1" width="62" height="62" transform="matrix(-1 0 0 1 62 0)" stroke="#2A2A2A" stroke-width="2"/>
<path d="M10.2929 32.7071C9.90237 32.3166 9.90237 31.6834 10.2929 31.2929L16.6569 24.9289C17.0474 24.5384 17.6805 24.5384 18.0711 24.9289C18.4616 25.3195 18.4616 25.9526 18.0711 26.3431L12.4142 32L18.0711 37.6569C18.4616 38.0474 18.4616 38.6805 18.0711 39.0711C17.6805 39.4616 17.0474 39.4616 16.6569 39.0711L10.2929 32.7071ZM53 33H11V31H53V33ZM13.2929 28.2929L22.7929 18.7929L24.2071 20.2071L14.7071 29.7071L13.2929 28.2929ZM14.7071 34.2929L24.2071 43.7929L22.7929 45.2071L13.2929 35.7071L14.7071 34.2929Z" fill="black"/>
</svg>
