<svg width="56" height="56" viewBox="0 0 56 56" fill="none" xmlns="http://www.w3.org/2000/svg">
<path d="M1.5 10.0003C1.5 5.30585 5.30564 1.5 10 1.5H46C50.6944 1.5 54.5 5.30558 54.5 10V38.4615C54.5 43.156 50.6944 46.9615 46 46.9615H14.8804C12.7161 46.9615 10.5957 47.5723 8.763 48.7236L1.5 53.2863V53.2682V53.1774V53.0865V52.9956V52.9048V52.8139V52.7231V52.6323V52.5415V52.4507V52.3599V52.2691V52.1783V52.0876V51.9968V51.9061V51.8154V51.7247V51.634V51.5433V51.4526V51.3619V51.2712V51.1806V51.0899V50.9993V50.9087V50.8181V50.7275V50.6369V50.5463V50.4557V50.3651V50.2746V50.184V50.0935V50.003V49.9124V49.8219V49.7314V49.6409V49.5505V49.46V49.3695V49.2791V49.1886V49.0982V49.0078V48.9173V48.8269V48.7365V48.6461V48.5558V48.4654V48.375V48.2847V48.1943V48.104V48.0137V47.9233V47.833V47.7427V47.6524V47.5621V47.4719V47.3816V47.2913V47.2011V47.1108V47.0206V46.9304V46.8402V46.7499V46.6597V46.5695V46.4794V46.3892V46.299V46.2088V46.1187V46.0285V45.9384V45.8483V45.7581V45.668V45.5779V45.4878V45.3977V45.3076V45.2176V45.1275V45.0374V44.9474V44.8573V44.7673V44.6772V44.5872V44.4972V44.4072V44.3172V44.2272V44.1372V44.0472V43.9572V43.8672V43.7773V43.6873V43.5974V43.5074V43.4175V43.3275V43.2376V43.1477V43.0578V42.9679V42.878V42.7881V42.6982V42.6083V42.5185V42.4286V42.3387V42.2489V42.159V42.0692V41.9793V41.8895V41.7997V41.7099V41.6201V41.5302V41.4404V41.3507V41.2609V41.1711V41.0813V40.9915V40.9018V40.812V40.7222V40.6325V40.5428V40.453V40.3633V40.2736V40.1838V40.0941V40.0044V39.9147V39.825V39.7353V39.6456V39.5559V39.4662V39.3766V39.2869V39.1972V39.1076V39.0179V38.9282V38.8386V38.7489V38.6593V38.5697V38.48V38.3904V38.3008V38.2112V38.1216V38.032V37.9424V37.8528V37.7632V37.6736V37.584V37.4944V37.4048V37.3153V37.2257V37.1361V37.0466V36.957V36.8674V36.7779V36.6884V36.5988V36.5093V36.4197V36.3302V36.2407V36.1511V36.0616V35.9721V35.8826V35.7931V35.7036V35.6141V35.5246V35.4351V35.3456V35.2561V35.1666V35.0771V34.9876V34.8982V34.8087V34.7192V34.6297V34.5403V34.4508V34.3613V34.2719V34.1824V34.093V34.0035V33.9141V33.8246V33.7352V33.6458V33.5563V33.4669V33.3774V33.288V33.1986V33.1092V33.0197V32.9303V32.8409V32.7515V32.6621V32.5726V32.4832V32.3938V32.3044V32.215V32.1256V32.0362V31.9468V31.8574V31.768V31.6786V31.5892V31.4998V31.4104V31.321V31.2317V31.1423V31.0529V30.9635V30.8741V30.7847V30.6954V30.606V30.5166V30.4272V30.3378V30.2485V30.1591V30.0697V29.9804V29.891V29.8016V29.7122V29.6229V29.5335V29.4441V29.3548V29.2654V29.176V29.0867V28.9973V28.9079V28.8186V28.7292V28.6398V28.5505V28.4611V28.3718V28.2824V28.193V28.1037V28.0143V27.9249V27.8356V27.7462V27.6569V27.5675V27.4781V27.3888V27.2994V27.21V27.1207V27.0313V26.942V26.8526V26.7632V26.6739V26.5845V26.4951V26.4058V26.3164V26.227V26.1376V26.0483V25.9589V25.8695V25.7802V25.6908V25.6014V25.512V25.4227V25.3333V25.2439V25.1545V25.0651V24.9757V24.8864V24.797V24.7076V24.6182V24.5288V24.4394V24.35V24.2606V24.1712V24.0818V23.9924V23.903V23.8136V23.7242V23.6348V23.5454V23.456V23.3666V23.2772V23.1877V23.0983V23.0089V22.9195V22.8301V22.7406V22.6512V22.5618V22.4723V22.3829V22.2935V22.204V22.1146V22.0251V21.9357V21.8462V21.7568V21.6673V21.5778V21.4884V21.3989V21.3094V21.22V21.1305V21.041V20.9515V20.8621V20.7726V20.6831V20.5936V20.5041V20.4146V20.3251V20.2356V20.1461V20.0566V19.967V19.8775V19.788V19.6985V19.6089V19.5194V19.4299V19.3403V19.2508V19.1612V19.0717V18.9821V18.8926V18.803V18.7134V18.6239V18.5343V18.4447V18.3551V18.2655V18.1759V18.0863V17.9967V17.9071V17.8175V17.7279V17.6383V17.5487V17.459V17.3694V17.2798V17.1901V17.1005V17.0108V16.9212V16.8315V16.7418V16.6522V16.5625V16.4728V16.3831V16.2934V16.2037V16.114V16.0243V15.9346V15.8449V15.7552V15.6655V15.5757V15.486V15.3962V15.3065V15.2167V15.127V15.0372V14.9475V14.8577V14.7679V14.6781V14.5883V14.4985V14.4087V14.3189V14.2291V14.1393V14.0494V13.9596V13.8698V13.7799V13.6901V13.6002V13.5103V13.4205V13.3306V13.2407V13.1508V13.0609V12.971V12.8811V12.7912V12.7013V12.6113V12.5214V12.4315V12.3415V12.2515V12.1616V12.0716V11.9816V11.8917V11.8017V11.7117V11.6217V11.5316V11.4416V11.3516V11.2616V11.1715V11.0815V10.9914V10.9014V10.8113V10.7212V10.6311V10.541V10.4509V10.3608V10.2707V10.1806V10.0905V10.0003Z" stroke="#2A2A2A" stroke-width="3"/>
<circle cx="16" cy="22" r="3" fill="#2A2A2A"/>
<circle cx="28" cy="22" r="3" fill="#2A2A2A"/>
<circle cx="40" cy="22" r="3" fill="#2A2A2A"/>
</svg>
