<?xml version="1.0" encoding="UTF-8" standalone="no"?>
<svg
   width="466.1416mm"
   height="58.208336mm"
   viewBox="0 0 466.1416 58.208336"
   version="1.1"
   id="svg5"
   xmlns:xlink="http://www.w3.org/1999/xlink"
   xmlns="http://www.w3.org/2000/svg"
   xmlns:svg="http://www.w3.org/2000/svg">

  <g
     id="layer1"
     transform="translate(-16.92919,-20.895836)">
    <g
       aria-label="viserty"
       transform="scale(1.0040914,0.99592527)"
       id="text360"
       style="font-size:105.402px;stroke:#000000;stroke-width:0.263505;paint-order:fill markers stroke">
      <path
         d="M 88.453979,21.324424 58.836017,79.295525 H 46.820189 L 16.991423,21.324424 h 12.015828 l 23.820852,46.271479 23.71545,-46.271479 z"
         id="path1118" />
      <path
         d="M 107.848,79.295525 H 97.413197 V 21.324424 H 107.848 Z"
         id="path1120" />
      <path
         d="m 186.5833,62.220401 q 0,4.74309 -2.31885,8.642964 -2.21344,3.794472 -6.11331,6.113316 -3.89988,2.318844 -8.64297,2.318844 h -49.22273 v -10.5402 h 49.22273 q 2.74046,0 4.63769,-1.897236 2.00264,-1.897236 2.00264,-4.637688 0,-2.740452 -2.00264,-4.637688 -1.89723,-2.002638 -4.63769,-2.002638 h -32.25301 q -4.63769,0 -8.53756,-2.318845 -3.79447,-2.318844 -6.11332,-6.218718 -2.31884,-3.899874 -2.31884,-8.642964 0,-4.637688 2.31884,-8.537562 2.31885,-3.899874 6.11332,-6.218718 3.89987,-2.318844 8.53756,-2.318844 h 45.42826 v 10.434798 h -45.42826 q -2.63505,0 -4.63769,2.002638 -1.89723,1.897236 -1.89723,4.637688 0,2.740452 1.89723,4.74309 2.00264,1.897236 4.63769,1.897236 h 32.25301 q 4.74309,0 8.64297,2.318844 3.89987,2.318844 6.11331,6.218718 2.31885,3.899875 2.31885,8.642965 z"
         id="path1122" />
      <path
         d="M 258.04593,79.295525 H 197.54518 V 21.11362 h 60.50075 v 10.645602 h -49.85515 v 36.890701 h 49.85515 z M 251.3002,55.263868 H 213.14467 V 44.618266 h 38.15553 z"
         id="path1124" />
      <path
         d="M 337.94059,79.295525 H 323.60592 L 307.16321,63.590627 H 285.7666 V 53.155828 h 29.19635 q 4.42689,0 7.48355,-3.16206 3.16206,-3.267462 3.16206,-7.588944 0,-4.426884 -3.16206,-7.483542 -3.05666,-3.16206 -7.48355,-3.16206 H 280.2857 V 79.295525 H 269.7455 V 21.324424 h 45.21745 q 5.90252,0 10.64561,2.845854 4.74309,2.845854 7.58894,7.694346 2.84585,4.74309 2.84585,10.5402 0,4.74309 -2.00263,8.95917 -1.89724,4.110679 -5.37551,7.167337 -3.37286,2.951256 -7.79974,4.21608 z"
         id="path1126" />
      <path
         d="m 380.10141,79.295525 h -10.5402 V 31.759222 H 341.62968 V 21.324424 h 66.29786 v 10.434798 h -27.82613 z"
         id="path1128" />
      <path
         d="m 480.97121,62.220401 q 0,4.74309 -2.84585,8.642964 -2.84586,3.794472 -7.69435,6.113316 -4.74309,2.318844 -10.5402,2.318844 h -45.32286 v -10.5402 h 45.32286 q 4.32148,0 7.37814,-1.897236 3.16206,-1.897236 3.16206,-4.637688 v -2.63505 h -34.88806 q -5.79711,0 -10.5402,-2.845854 -4.74309,-2.845855 -7.58894,-7.588945 -2.84586,-4.848492 -2.84586,-10.645602 V 21.324424 h 10.4348 V 38.50495 q 0,4.426884 3.05666,7.483542 3.16206,3.056658 7.48354,3.056658 h 34.88806 V 21.324424 h 10.5402 z"
         id="path1130" />
    </g>
  </g>
</svg>
