<svg width="18" height="15" viewBox="0 0 18 15" fill="none" xmlns="http://www.w3.org/2000/svg">
<g clip-path="url(#clip0_224_409)">
<path d="M7.82156 0.578125H0.425415V7.05H4.63233C4.59354 11.08 0.838665 11.8412 0.838665 11.8412C0.838665 11.8412 0.818873 11.9761 0.838665 14.4224C7.09877 13.2214 7.76535 8.51221 7.81958 7.05H7.82117V7.00963C7.82948 6.75946 7.82117 6.60271 7.82117 6.60271L7.82156 0.578125Z" fill="#303030"/>
<path d="M17.996 6.60231V0.578125H10.6003V7.05H14.8076C14.7688 11.08 11.0139 11.8412 11.0139 11.8412C11.0139 11.8412 10.9942 11.9761 11.0139 14.4224C17.274 13.2214 17.9406 8.51221 17.9949 7.05H17.9964V7.00963C18.0044 6.75946 17.996 6.60231 17.996 6.60231Z" fill="#303030"/>
</g>
<defs>
<clipPath id="clip0_224_409">
<rect width="18" height="15" fill="white"/>
</clipPath>
</defs>
</svg>
