<svg width="25" height="23" viewBox="0 0 25 23" fill="none" xmlns="http://www.w3.org/2000/svg">
<path d="M23.3179 0.120752C21.6554 0.766869 1.14262 9.09402 0.839454 9.24908C-0.162956 9.75047 -0.280312 10.4121 0.555845 10.8618C0.638972 10.9083 2.02279 11.3735 3.64131 11.9059L6.58009 12.8725L13.2498 8.45824C16.922 6.03401 19.9977 4.01813 20.0857 3.98711C20.3156 3.90441 20.5112 3.90958 20.5992 4.00779C20.6627 4.07498 20.6676 4.106 20.6138 4.20421C20.5845 4.2714 18.1445 6.61293 15.2008 9.40415C12.2572 12.2005 9.8367 14.5059 9.82692 14.5317C9.81714 14.5576 9.71935 15.9532 9.60688 17.6331L9.40151 20.6828L9.62644 20.6517C9.74869 20.6362 9.93939 20.569 10.0519 20.5018C10.1692 20.4398 10.932 19.7058 11.7584 18.8736C12.5799 18.0414 13.284 17.3436 13.3182 17.3333C13.3525 17.3178 14.6629 18.2999 16.2326 19.5146C17.7973 20.7293 19.2007 21.7786 19.3523 21.8509C19.7483 22.0474 20.1884 22.0629 20.4769 21.9026C20.7361 21.7579 20.9855 21.3961 21.093 21.0187C21.1322 20.874 22.0319 16.4959 23.0832 11.2908C24.8386 2.62768 25 1.79032 25 1.34062C25 0.916765 24.9853 0.813389 24.8778 0.591124C24.8044 0.430887 24.6724 0.270651 24.5452 0.17761C24.2567 -0.034317 23.7775 -0.0601616 23.3179 0.120752Z" fill="#737373"/>
</svg>
