<svg width="30" height="18" viewBox="0 0 30 18" fill="none" xmlns="http://www.w3.org/2000/svg">
<path d="M12.5708 0.0193768C12.0019 0.0624104 11.2747 0.179213 10.9873 0.271425C10.4888 0.431259 9.87294 1.00913 9.98438 1.20585C10.0078 1.23658 10.1193 1.28576 10.2424 1.31035C10.782 1.41486 11.2336 1.73453 11.4389 2.15256C11.7849 2.86567 11.9433 5.10337 11.7556 6.68328C11.6324 7.72835 11.5797 7.96811 11.392 8.34925C10.9052 9.36359 9.76737 8.53368 8.52985 6.2591C8.08411 5.44148 6.84073 2.84108 6.56507 2.14641C6.2249 1.30421 6.11933 1.15052 5.7381 0.947651L5.41553 0.77552L2.98155 0.793962C0.782165 0.812407 0.529969 0.824701 0.359884 0.923061C0.0842281 1.07675 -0.0330722 1.29191 0.00798294 1.56855C0.0666331 2.0542 1.46837 5.12796 2.64724 7.3595C4.07244 10.0583 5.95511 12.8615 7.31579 14.3246C8.50053 15.5972 10.3245 16.839 11.7967 17.3738C12.7703 17.7303 13.3098 17.8164 14.8582 17.8533C16.389 17.8902 16.8288 17.841 17.1573 17.6074C17.4212 17.4168 17.5033 17.1525 17.5561 16.3349C17.603 15.5234 17.7555 14.8287 17.9608 14.4599C18.1485 14.1341 18.5414 13.7529 18.7174 13.7468C19.3097 13.716 19.6441 13.9742 20.8874 15.4373C22.0546 16.8082 22.4827 17.2078 23.1279 17.5336C23.4211 17.675 23.773 17.8226 23.9197 17.8594C24.2716 17.9455 29.0222 17.8472 29.3272 17.7549C29.6322 17.6566 29.9606 17.3185 29.9665 17.0972C29.9841 16.5008 29.9196 16.2549 29.597 15.7263C29.0867 14.8902 28.4299 14.1095 26.9343 12.5541C25.2686 10.8267 25.1572 10.6669 25.1513 10.089C25.1513 9.60334 25.3683 9.23449 26.8287 7.20582C28.8873 4.34722 29.7084 2.96403 29.9372 1.99273C30.0721 1.42101 29.9958 1.14437 29.6498 0.953798C29.3213 0.781668 28.8287 0.763226 25.7437 0.824701L23.3214 0.87388L23.1337 1.09519C23.034 1.21814 22.8346 1.61773 22.6939 1.98658C21.9607 3.9046 20.5297 6.53574 19.5561 7.75294C19.1749 8.2263 18.5825 8.71196 18.3889 8.71196C18.1133 8.71196 17.8846 8.52753 17.7145 8.15868L17.5561 7.82057L17.5737 4.63001C17.5854 1.78986 17.5796 1.40257 17.4916 1.12593C17.2922 0.48044 17.04 0.289867 16.1954 0.130032C15.6969 0.0378189 13.304 -0.0359497 12.5708 0.0193768Z" fill="#737373"/>
</svg>
