<svg width="26" height="28" viewBox="0 0 26 28" fill="none" xmlns="http://www.w3.org/2000/svg">
<path d="M11.435 0.0799427C5.46268 0.853209 0.765068 5.87942 0.146676 12.1565C0.0544597 13.0833 0.108705 14.8459 0.26059 15.7385C0.493843 17.1429 0.884407 18.3824 1.49195 19.6503L1.79572 20.2872L0.889831 23.7612C0.390778 25.6773 -0.0106341 27.2465 0.000214847 27.2522C0.0110638 27.2636 1.52992 26.8485 3.37967 26.3368C6.07022 25.592 6.76998 25.4157 6.87847 25.4612C6.95441 25.4896 7.307 25.6545 7.66502 25.8251C8.82586 26.3766 10.0464 26.7405 11.332 26.9224C12.227 27.0475 13.7947 27.0475 14.6626 26.9224C17.5159 26.5017 20.06 25.1826 22.067 23.0789C23.1194 21.9815 23.8191 20.9751 24.4809 19.6049C25.0776 18.371 25.5007 17.0235 25.7394 15.6021C25.875 14.772 25.875 12.3214 25.7394 11.4515C25.5062 9.97886 25.1427 8.80191 24.5298 7.49987C22.7776 3.79843 19.5447 1.16024 15.677 0.278946C14.4728 0.00602913 12.6772 -0.079258 11.435 0.0799427ZM14.8253 2.43385C16.3822 2.7352 17.6732 3.28103 18.948 4.17369C21.1286 5.70317 22.7288 8.07413 23.3635 10.701C23.83 12.6341 23.792 14.8288 23.2659 16.6881C22.4088 19.6901 20.3746 22.2203 17.7057 23.5849C16.1543 24.3809 14.7223 24.7277 12.981 24.7277C10.9848 24.7277 9.22185 24.2217 7.41549 23.13L7.11172 22.9481L5.11551 23.4996C4.01976 23.801 3.10845 24.0398 3.10302 24.0284C3.09217 24.017 3.31458 23.1187 3.60208 22.027C3.88415 20.9353 4.12283 20.0029 4.12283 19.9574C4.12825 19.9062 3.98721 19.6219 3.81363 19.3263C1.25327 14.9596 1.92591 9.2056 5.41386 5.56671C7.14969 3.75863 9.35203 2.64422 11.8148 2.32582C12.482 2.24053 14.1419 2.30308 14.8253 2.43385Z" fill="#737373"/>
<path d="M7.91457 7.39752C7.60537 7.55673 7.03038 8.26745 6.7917 8.79054C6.31977 9.81397 6.33062 11.1103 6.81882 12.3043C7.41551 13.777 8.98319 15.8693 10.5292 17.2566C11.6141 18.2289 12.52 18.8032 13.849 19.349C15.2105 19.9062 15.4709 19.9688 16.3713 19.9688C17.082 19.9688 17.1959 19.9574 17.5213 19.8266C18.0638 19.6105 18.4706 19.3433 18.872 18.9283C19.1867 18.6042 19.2518 18.5018 19.3548 18.1607C19.4796 17.7286 19.5555 17.0406 19.4959 16.8018C19.4687 16.6767 19.3114 16.5743 18.5411 16.1707C17.1308 15.4315 16.5612 15.1757 16.3225 15.1757C16.1218 15.1757 16.0893 15.1984 15.8506 15.5282C15.3027 16.2844 14.7982 16.87 14.6681 16.9041C14.5107 16.9439 14.2016 16.8245 13.4909 16.4493C12.3355 15.8466 11.3971 15.0335 10.5888 13.9475C10.1495 13.3562 9.75347 12.6853 9.75347 12.5261C9.75347 12.4635 9.9596 12.1281 10.2091 11.7869C10.6973 11.1217 10.8384 10.8715 10.8384 10.6839C10.8384 10.6214 10.7299 10.3086 10.6051 9.98455C10.4749 9.66614 10.2146 9.0066 10.0247 8.5233C9.78602 7.92061 9.62328 7.58515 9.50394 7.45438L9.33036 7.27244H8.74451C8.25089 7.27244 8.11527 7.29518 7.91457 7.39752Z" fill="#737373"/>
</svg>
